<svg version="1.1" xmlns="http://www.w3.org/2000/svg" xmlns:xlink="http://www.w3.org/1999/xlink" width="93.9549" height="91.60743" viewBox="0,0,93.9549,91.60743"><g transform="translate(-193.02255,-134.19628)"><g data-paper-data="{&quot;isPaintingLayer&quot;:true}" fill="#ffffff" fill-rule="nonzero" stroke="none" stroke-width="1" stroke-linecap="butt" stroke-linejoin="miter" stroke-miterlimit="10" stroke-dasharray="" stroke-dashoffset="0" style="mix-blend-mode: normal"><path d="M223.38741,207.27653c-0.54934,0 -0.98501,0.30308 -0.98501,0.68193c0,0.43568 0.43568,0.73876 1.06078,0.68193c0.54934,0 0.98501,-0.30308 0.98501,-0.68193c0,-0.43568 -0.49251,-0.73876 -1.06078,-0.68193zM219.73151,206.67036c0.56827,0.17049 0.92818,0.60617 0.81453,0.98502c-0.11365,0.37885 -0.68193,0.56827 -1.17444,0.37885c-0.56827,-0.11365 -0.94713,-0.54934 -0.81453,-0.92819c0.1326,-0.37885 0.68194,-0.56828 1.17444,-0.43568zM228.04727,207.33335c0.05683,0.37885 -0.32202,0.73876 -0.87135,0.87136c-0.56827,0.1326 -1.06078,-0.11366 -1.11761,-0.49251c-0.05683,-0.43568 0.32202,-0.79558 0.87136,-0.92818c0.54934,-0.05683 1.06078,0.18942 1.11761,0.54933zM286.97745,180.41603c0,21.00725 -12.84303,38.9837 -31.78555,45.27262c-2.4057,0.43568 -3.27706,-1.06078 -3.27706,-2.29204c0,-1.55328 0.05683,-9.45231 0.05683,-15.83595c0,-4.45149 -1.47752,-7.29287 -3.22023,-8.78933c10.58887,-1.19338 21.74601,-2.65196 21.74601,-20.93149c0,-5.19025 -1.85636,-7.80432 -4.88717,-11.15714c0.49251,-1.23127 2.10262,-6.28892 -0.4925,-12.86197c-3.95898,-1.2502 -13.07034,5.11448 -13.07034,5.11448c-3.7885,-1.06078 -7.86115,-1.61012 -11.8959,-1.61012c-4.03475,0 -8.1074,0.54934 -11.8959,1.61012c0,0 -9.11135,-6.34575 -13.07034,-5.11448c-2.59512,6.55411 -0.98501,11.63071 -0.49251,12.86197c-3.0308,3.33389 -4.47043,5.94795 -4.47043,11.15714c0,18.2227 10.68358,19.75705 21.27245,20.93149c-1.36386,1.2502 -2.59513,3.35283 -3.03081,6.38363c-2.70878,1.2502 -9.66068,3.35283 -13.80909,-3.95899c-2.59512,-4.50832 -7.31181,-4.88717 -7.31181,-4.88717c-4.64092,-0.05683 -0.30308,2.91715 -0.30308,2.91715c3.10657,1.42069 5.26602,6.93296 5.26602,6.93296c2.78455,8.48625 16.04431,5.64487 16.04431,5.64487c0,3.97793 0.05683,10.45627 0.05683,11.63071c0,1.23127 -0.85242,2.72772 -3.27706,2.29205c-18.88569,-6.3268 -32.10757,-24.30325 -32.10757,-45.31051c0,-26.27328 20.09802,-46.21975 46.37129,-46.21975c26.27327,0 47.58361,19.94647 47.58361,46.21975zM212.41969,199.71846c0.32202,0.35991 0.37885,0.79559 0.1326,0.98502c-0.24625,0.24625 -0.68194,0.11365 -0.98502,-0.18942c-0.32202,-0.35991 -0.37885,-0.79559 -0.1326,-0.98502c0.24625,-0.24625 0.68193,-0.11365 0.98501,0.18942zM210.20342,197.86209c0.37885,0.18942 0.56828,0.4925 0.43568,0.73876c-0.1326,0.2652 -0.51145,0.32202 -0.81453,0.1326c-0.37885,-0.18942 -0.56827,-0.4925 -0.43568,-0.73875c0.1326,-0.18942 0.43568,-0.24625 0.81453,-0.1326zM216.75753,204.92765c0.37885,0.35991 0.4925,0.92818 0.24625,1.17444c-0.24625,0.30308 -0.79559,0.24625 -1.23127,-0.18942c-0.43568,-0.35991 -0.54933,-0.92818 -0.24625,-1.17444c0.24625,-0.30308 0.81453,-0.24625 1.23127,0.18942zM214.4276,202.33253c0.30308,0.43568 0.30308,0.92818 0,1.17444c-0.24625,0.18942 -0.75771,0 -1.06079,-0.43568c-0.30308,-0.43568 -0.30308,-0.92819 0,-1.11761c0.30308,-0.24625 0.79559,-0.05683 1.06079,0.37885z"/></g></g></svg>
