<svg version="1.1" xmlns="http://www.w3.org/2000/svg" xmlns:xlink="http://www.w3.org/1999/xlink" width="120.33333" height="90.25" viewBox="0,0,120.33333,90.25"><g transform="translate(-179.83333,-134.875)"><g data-paper-data="{&quot;isPaintingLayer&quot;:true}" fill="#ffffff" fill-rule="nonzero" stroke="none" stroke-width="1" stroke-linecap="butt" stroke-linejoin="miter" stroke-miterlimit="10" stroke-dasharray="" stroke-dashoffset="0" style="mix-blend-mode: normal"><path d="M251.09323,198.73158l49.07344,-38.19173v53.30391c0,6.23054 -5.05071,11.28125 -11.28125,11.28125h-97.77083c-6.23054,0 -11.28125,-5.05306 -11.28125,-11.28125v-53.30391l49.08284,38.16588c3.31387,2.58247 7.19885,3.85678 11.08383,3.85678c3.87793,0 7.77936,-1.26914 11.09323,-3.83092zM179.83333,146.15625c0,-6.23054 5.05071,-11.28125 11.28125,-11.28125h97.77083c6.22819,0 11.28125,5.05071 11.28125,11.28125c0,3.05534 -1.62168,5.94616 -3.81917,7.82637l-49.87253,38.8028c-3.80507,2.96133 -9.13546,2.96133 -12.94053,0l-49.87253,-38.8028c-2.41607,-1.88021 -3.82857,-4.77103 -3.82857,-7.82637z"/></g></g></svg>